<svg xmlns="http://www.w3.org/2000/svg" xmlns:xlink="http://www.w3.org/1999/xlink" viewBox="0 0 880.28 336"><defs><clipPath id="a"><path d="M231.92,270l1.49,2.61a3.5,3.5,0,0,0-.58-.75,3.33,3.33,0,0,0-.76-.58,3.94,3.94,0,0,0-.92-.37,4.28,4.28,0,0,0-1-.12l-1.47-2.61a4.34,4.34,0,0,1,1,.12,4,4,0,0,1,.91.37,3.56,3.56,0,0,1,.76.58A3.23,3.23,0,0,1,231.92,270Z" style="fill:none"/></clipPath><clipPath id="b"><path d="M226.19,274.49l-1.45-2.62a3.54,3.54,0,0,1,.34-1.44,3.78,3.78,0,0,1,.85-1.18,4.08,4.08,0,0,1,1.23-.8,3.94,3.94,0,0,1,1.49-.32l1.47,2.61a4,4,0,0,0-1.5.32,4,4,0,0,0-2.09,2A3.94,3.94,0,0,0,226.19,274.49Z" style="fill:none"/></clipPath><clipPath id="c"><path d="M176.52,271.08l1.22,2.63a3.78,3.78,0,0,0-.57-.86,3.82,3.82,0,0,0-2.89-1.23,4,4,0,0,0-1.51.31,4.09,4.09,0,0,0-1.24.81,4,4,0,0,0-.84,1.19,3.58,3.58,0,0,0-.33,1.45l-1.19-2.64a3.69,3.69,0,0,1,.32-1.44,4,4,0,0,1,2.08-2,3.76,3.76,0,0,1,1.5-.31,3.68,3.68,0,0,1,1.11.14,3.52,3.52,0,0,1,1,.42,3.44,3.44,0,0,1,.8.67A3.51,3.51,0,0,1,176.52,271.08Z" style="fill:none"/></clipPath><clipPath id="d"><path d="M120.81,272.26l.1.26,0,.14.09.26.1.26,0,.13.09.27.1.26,0,.14.09.26.1.26.05.14.09.26a3.38,3.38,0,0,0-.55-1,4,4,0,0,0-.82-.77,3.88,3.88,0,0,0-1.05-.49,4,4,0,0,0-2.71.15,3.86,3.86,0,0,0-1.24.81,3.91,3.91,0,0,0-.85,1.2,3.48,3.48,0,0,0-.31,1.44l-.93-2.64a3.74,3.74,0,0,1,.32-1.45,4,4,0,0,1,2.07-2,4,4,0,0,1,1.51-.32,3.89,3.89,0,0,1,1.19.17,3.68,3.68,0,0,1,1,.49,3.55,3.55,0,0,1,.83.76A3.76,3.76,0,0,1,120.81,272.26Z" style="fill:none"/></clipPath><clipPath id="e"><path d="M64.79,273.48l.35,1.32.07.27,0,.13.07.26.07.27,0,.13.07.27a3.64,3.64,0,0,0-1.36-2,3.65,3.65,0,0,0-1.11-.57,4,4,0,0,0-2.82.12,4.32,4.32,0,0,0-1.24.82,3.93,3.93,0,0,0-.83,1.19,3.57,3.57,0,0,0-.31,1.46l-.66-2.66a3.56,3.56,0,0,1,.31-1.45,3.93,3.93,0,0,1,.83-1.19A4.11,4.11,0,0,1,61,270.73a3.91,3.91,0,0,1,2.4.76,3.69,3.69,0,0,1,.84.88A3.4,3.4,0,0,1,64.79,273.48Z" style="fill:none"/></clipPath><clipPath id="f"><path d="M8.45,274.72l.42,2.67a3.6,3.6,0,0,0-.45-1.25,3.78,3.78,0,0,0-.87-1,4.07,4.07,0,0,0-1.17-.66,4.14,4.14,0,0,0-2.93.1,4.12,4.12,0,0,0-1.24.82,3.85,3.85,0,0,0-.83,1.2,3.72,3.72,0,0,0-.3,1.45L.7,275.38a3.55,3.55,0,0,1,.3-1.45,3.73,3.73,0,0,1,.82-1.19,4.06,4.06,0,0,1,1.24-.82,4.15,4.15,0,0,1,1.51-.31,4.07,4.07,0,0,1,1.4.22,3.82,3.82,0,0,1,1.17.65,3.74,3.74,0,0,1,.86,1A3.62,3.62,0,0,1,8.45,274.72Z" style="fill:none"/></clipPath><clipPath id="g"><path d="M477.37,270l1.49,2.61a3.5,3.5,0,0,0-.58-.75,3.33,3.33,0,0,0-.76-.58,4.12,4.12,0,0,0-.92-.37,4.34,4.34,0,0,0-1-.12l-1.47-2.61a4.19,4.19,0,0,1,1,.12,4.12,4.12,0,0,1,.92.37,3.56,3.56,0,0,1,.76.58A3.23,3.23,0,0,1,477.37,270Z" style="fill:none"/></clipPath><clipPath id="h"><path d="M471.64,274.49l-1.45-2.62a3.54,3.54,0,0,1,.34-1.44,3.91,3.91,0,0,1,.84-1.18,4.26,4.26,0,0,1,1.24-.8,3.9,3.9,0,0,1,1.49-.32l1.47,2.61a4,4,0,0,0-1.5.32,4,4,0,0,0-2.09,2A3.58,3.58,0,0,0,471.64,274.49Z" style="fill:none"/></clipPath><clipPath id="i"><path d="M422,271.08l1.23,2.63a3.78,3.78,0,0,0-.57-.86,3.82,3.82,0,0,0-2.89-1.23,4,4,0,0,0-1.51.31,4.09,4.09,0,0,0-1.24.81,4.18,4.18,0,0,0-.85,1.19,3.57,3.57,0,0,0-.32,1.45l-1.19-2.64a3.69,3.69,0,0,1,.32-1.44,3.78,3.78,0,0,1,.85-1.18,3.93,3.93,0,0,1,1.23-.81,3.76,3.76,0,0,1,1.5-.31,3.72,3.72,0,0,1,1.11.14,3.65,3.65,0,0,1,1,.42,3.44,3.44,0,0,1,.8.67A3.21,3.21,0,0,1,422,271.08Z" style="fill:none"/></clipPath><clipPath id="j"><path d="M366.26,272.26l1,2.64a3.38,3.38,0,0,0-.55-1,4,4,0,0,0-.82-.77,3.88,3.88,0,0,0-1.05-.49,4,4,0,0,0-1.2-.17,4.11,4.11,0,0,0-2.76,1.13,3.88,3.88,0,0,0-.84,1.2,3.65,3.65,0,0,0-.32,1.44l-.92-2.64a3.68,3.68,0,0,1,1.16-2.63,4,4,0,0,1,3.93-1,3.68,3.68,0,0,1,1,.49,3.46,3.46,0,0,1,1.37,1.74Z" style="fill:none"/></clipPath><clipPath id="k"><path d="M310.24,273.48l.07.26,0,.13.07.27.07.26,0,.13.06.27.07.27,0,.13.07.26.07.27,0,.13.07.27a3.4,3.4,0,0,0-.51-1.11,3.56,3.56,0,0,0-.85-.88,3.65,3.65,0,0,0-1.11-.57,4,4,0,0,0-2.82.12,4.32,4.32,0,0,0-1.24.82,3.76,3.76,0,0,0-.83,1.19,3.57,3.57,0,0,0-.31,1.46l-.66-2.66a3.56,3.56,0,0,1,.31-1.45,3.93,3.93,0,0,1,.83-1.19,3.86,3.86,0,0,1,1.24-.81,4,4,0,0,1,1.51-.32,4.24,4.24,0,0,1,1.29.19,4.31,4.31,0,0,1,1.11.57,3.69,3.69,0,0,1,.84.88A3.4,3.4,0,0,1,310.24,273.48Z" style="fill:none"/></clipPath><clipPath id="l"><path d="M253.9,274.72l.42,2.67a3.6,3.6,0,0,0-.45-1.25,3.78,3.78,0,0,0-.87-1,3.93,3.93,0,0,0-2.58-.88,4.05,4.05,0,0,0-1.52.32,3.89,3.89,0,0,0-1.24.82,3.69,3.69,0,0,0-.83,1.2,3.55,3.55,0,0,0-.3,1.45l-.38-2.67a3.54,3.54,0,0,1,.29-1.45,3.93,3.93,0,0,1,.83-1.19,4.06,4.06,0,0,1,1.24-.82,4.15,4.15,0,0,1,1.51-.31,4,4,0,0,1,1.39.22,3.88,3.88,0,0,1,1.18.65,3.93,3.93,0,0,1,.86,1A3.62,3.62,0,0,1,253.9,274.72Z" style="fill:none"/></clipPath><clipPath id="m"><path d="M720.82,270l1.49,2.61a3.85,3.85,0,0,0-.58-.75,3.38,3.38,0,0,0-.77-.58,4,4,0,0,0-.91-.37,4.34,4.34,0,0,0-1-.12l-1.47-2.61a4.25,4.25,0,0,1,1,.12,3.86,3.86,0,0,1,.91.37,3.33,3.33,0,0,1,.76.58A3.27,3.27,0,0,1,720.82,270Z" style="fill:none"/></clipPath><clipPath id="n"><path d="M715.09,274.49l-1.45-2.62a3.7,3.7,0,0,1,.33-1.44,4.13,4.13,0,0,1,.85-1.18,4.21,4.21,0,0,1,1.23-.8,4,4,0,0,1,1.5-.32l1.47,2.61a4,4,0,0,0-1.5.32,4.09,4.09,0,0,0-1.24.81,3.78,3.78,0,0,0-.85,1.18A3.58,3.58,0,0,0,715.09,274.49Z" style="fill:none"/></clipPath><clipPath id="o"><path d="M665.41,271.08l1.23,2.63a3.78,3.78,0,0,0-.57-.86,4,4,0,0,0-.8-.67,3.92,3.92,0,0,0-2.1-.56,3.94,3.94,0,0,0-1.5.31,3.86,3.86,0,0,0-1.24.81,3.82,3.82,0,0,0-.85,1.19,3.75,3.75,0,0,0-.33,1.45l-1.19-2.64a3.7,3.7,0,0,1,.33-1.44,3.91,3.91,0,0,1,.84-1.18,4,4,0,0,1,1.24-.81A3.76,3.76,0,0,1,662,269a3.65,3.65,0,0,1,1.1.14,3.72,3.72,0,0,1,1,.42,3.38,3.38,0,0,1,.79.67A3.25,3.25,0,0,1,665.41,271.08Z" style="fill:none"/></clipPath><clipPath id="p"><path d="M609.71,272.26l1,2.64a3.63,3.63,0,0,0-.55-1,3.82,3.82,0,0,0-.83-.77,3.68,3.68,0,0,0-1-.49,4,4,0,0,0-2.72.15,4.09,4.09,0,0,0-1.24.81,3.88,3.88,0,0,0-.84,1.2,3.65,3.65,0,0,0-.32,1.44l-.92-2.64a3.57,3.57,0,0,1,.32-1.45,3.72,3.72,0,0,1,.83-1.18,4,4,0,0,1,3.94-1,3.71,3.71,0,0,1,1.86,1.25A3.52,3.52,0,0,1,609.71,272.26Z" style="fill:none"/></clipPath><clipPath id="q"><path d="M553.69,273.48l.69,2.65a3.62,3.62,0,0,0-.51-1.11,3.56,3.56,0,0,0-.85-.88,3.77,3.77,0,0,0-1.11-.57,4.31,4.31,0,0,0-1.3-.2,4.26,4.26,0,0,0-1.52.32,4.06,4.06,0,0,0-1.24.82,4,4,0,0,0-.84,1.19,3.74,3.74,0,0,0-.3,1.46l-.66-2.66a3.56,3.56,0,0,1,.31-1.45,3.76,3.76,0,0,1,.83-1.19,3.93,3.93,0,0,1,1.23-.81,4,4,0,0,1,1.51-.32,3.85,3.85,0,0,1,2.4.76,3.74,3.74,0,0,1,.85.88A3.62,3.62,0,0,1,553.69,273.48Z" style="fill:none"/></clipPath><clipPath id="r"><path d="M497.34,274.72l.42,2.67a3.41,3.41,0,0,0-.45-1.25,3.57,3.57,0,0,0-.86-1,4.13,4.13,0,0,0-1.18-.66,4.11,4.11,0,0,0-2.92.1,3.89,3.89,0,0,0-1.24.82,3.69,3.69,0,0,0-.83,1.2,3.55,3.55,0,0,0-.3,1.45l-.38-2.67a3.54,3.54,0,0,1,.29-1.45,3.93,3.93,0,0,1,.83-1.19,4.14,4.14,0,0,1,1.23-.82,4.25,4.25,0,0,1,1.52-.31,4,4,0,0,1,1.39.22,3.88,3.88,0,0,1,1.18.65,3.71,3.71,0,0,1,.85,1A3.43,3.43,0,0,1,497.34,274.72Z" style="fill:none"/></clipPath></defs><g style="isolation:isolate"><polygon points="224.98 321.97 223.54 319.14 223.85 307.05 225.29 309.83 224.98 321.97" style="fill:#2e1a00"/><polygon points="169.52 322.97 168.34 320.13 168.52 309.91 169.7 312.71 169.52 322.97" style="fill:#2e1a00"/><polygon points="177.5 305.63 176.28 302.87 224.03 299.77 225.48 302.51 177.5 305.63" style="fill:#351e00"/><polygon points="225.48 302.51 224.03 299.77 224.4 285.35 225.85 288.03 225.48 302.51" style="fill:#2e1a00"/><polygon points="169.83 305.4 168.65 302.63 168.79 294.36 169.98 297.1 169.83 305.4" style="fill:#2e1a00"/><polygon points="226.04 280.67 224.59 278.02 224.74 271.87 226.19 274.49 226.04 280.67" style="fill:#2e1a00"/><g style="isolation:isolate"><g style="clip-path:url(#a)"><g style="isolation:isolate"><path d="M230.12,270.74l-1.47-2.61h.53l1.47,2.61h-.53" style="fill:#301b00"/><path d="M230.65,270.77l-1.47-2.61.18,0,.18,0,.17,0,.17.05,1.47,2.61-.17-.05-.17,0-.18,0-.18,0" style="fill:#321c00"/><path d="M231.35,270.92l-1.47-2.61.14.05.14.05.14.06.14.07,1.48,2.61-.14-.07-.14-.06-.14,0-.15-.05" style="fill:#341d00"/><path d="M231.92,271.15l-1.48-2.61.13.07.13.07.12.08.12.09,1.48,2.61-.12-.09-.12-.08-.13-.07-.13-.07" style="fill:#351e00"/><path d="M232.42,271.46l-1.48-2.61.13.1.12.1.12.11.12.12,1.48,2.61-.11-.12-.12-.11-.13-.1-.13-.1" style="fill:#371f00"/><path d="M232.91,271.89l-1.48-2.61.14.15.13.17.12.17.1.18,1.49,2.61a1.74,1.74,0,0,0-.11-.18l-.12-.17a1,1,0,0,0-.13-.16,1.07,1.07,0,0,0-.14-.16" style="fill:#392000"/></g></g></g><g style="isolation:isolate"><g style="clip-path:url(#b)"><g style="isolation:isolate"><path d="M226.19,274.49l-1.45-2.62a3.54,3.54,0,0,1,.34-1.44,3.78,3.78,0,0,1,.85-1.18,4.08,4.08,0,0,1,1.23-.8,3.94,3.94,0,0,1,1.49-.32l1.47,2.61a4,4,0,0,0-1.5.32,4,4,0,0,0-2.09,2,3.94,3.94,0,0,0-.34,1.44" style="fill:#301b00"/></g></g></g><polygon points="113.78 323.98 112.87 321.12 113 306.51 113.92 309.3 113.78 323.98" style="fill:#2e1a00"/><polygon points="121.68 304.77 120.72 302 168.65 302.63 169.83 305.4 121.68 304.77" style="fill:#361e00"/><polygon points="177.91 283.76 176.68 281.09 224.59 278.02 226.04 280.67 177.91 283.76" style="fill:#341d00"/><polygon points="170.11 289.7 168.92 287 169.17 272.74 170.36 275.38 170.11 289.7" style="fill:#2e1a00"/><g style="isolation:isolate"><g style="clip-path:url(#c)"><g style="isolation:isolate"><path d="M170.36,275.38l-1.19-2.64a3.69,3.69,0,0,1,.32-1.44,4,4,0,0,1,2.08-2,3.76,3.76,0,0,1,1.5-.31h.53l1.21,2.62h-.53a4,4,0,0,0-1.51.31,4.09,4.09,0,0,0-1.24.81,4,4,0,0,0-.84,1.19,3.58,3.58,0,0,0-.33,1.45" style="fill:#301b00"/><path d="M174.81,271.64,173.6,269l.18,0,.18,0,.17,0,.17.05,1.22,2.62-.17-.05-.18,0-.18,0-.18,0" style="fill:#321c00"/><path d="M175.52,271.79l-1.22-2.62.15.05.14.06.14.06.14.06,1.22,2.62L176,272l-.14-.06-.15-.06-.14,0" style="fill:#341d00"/><path d="M176.09,272l-1.22-2.62.13.07.13.08.13.08.12.08,1.22,2.62-.13-.08-.12-.08-.13-.08-.13-.07" style="fill:#351e00"/><path d="M176.6,272.33l-1.22-2.62.13.1.12.11.12.1.12.12,1.22,2.62-.12-.11a.43.43,0,0,0-.12-.11l-.12-.11-.13-.1" style="fill:#371f00"/><path d="M177.09,272.76l-1.22-2.62.15.16.13.18.13.18a1.18,1.18,0,0,1,.11.19l1.23,2.63-.12-.19-.12-.19-.14-.17-.15-.17" style="fill:#392000"/><path d="M177.62,273.48l-1.23-2.63,0,.06,0,.06,0,0,0,.06,1.22,2.63,0-.06,0-.06,0-.06,0,0" style="fill:#3b2100"/></g></g></g><polygon points="57.74 324.99 57.09 322.12 57.11 308.25 57.76 311.06 57.74 324.99" style="fill:#2e1a00"/><polygon points="113.99 301.95 113.07 299.19 113.19 287.17 114.11 289.88 113.99 301.95" style="fill:#2e1a00"/><polygon points="121.88 285.69 120.92 283 168.92 287 170.11 289.7 121.88 285.69" style="fill:#361f00"/><polygon points="65.53 302.78 64.84 300.01 113.07 299.19 113.99 301.95 65.53 302.78" style="fill:#351e00"/><polygon points="114.18 282.48 113.25 279.81 113.31 273.62 114.24 276.26 114.18 282.48" style="fill:#2e1a00"/><polygon points="57.77 303.64 57.12 300.86 57.13 291.66 57.78 294.39 57.77 303.64" style="fill:#2e1a00"/><polygon points="9.09 310.1 8.67 307.29 57.12 300.86 57.77 303.64 9.09 310.1" style="fill:#331d00"/><g style="isolation:isolate"><g style="clip-path:url(#d)"><g style="isolation:isolate"><path d="M114.24,276.26l-.93-2.64a3.74,3.74,0,0,1,.32-1.45,4,4,0,0,1,2.07-2,4,4,0,0,1,1.51-.32h.53l.94,2.63h-.53a4,4,0,0,0-1.51.32,3.86,3.86,0,0,0-1.24.81,3.91,3.91,0,0,0-.85,1.2,3.48,3.48,0,0,0-.31,1.44" style="fill:#301b00"/><path d="M118.68,272.52l-.94-2.63.18,0,.18,0,.17,0,.18.05.94,2.63-.17-.05-.17,0-.18,0-.19,0" style="fill:#321c00"/><path d="M119.39,272.67l-.94-2.63.14,0,.15.05.14.06.14.07,1,2.63-.14-.06-.14-.07-.15,0-.15-.05" style="fill:#341d00"/><path d="M120,272.9l-1-2.63.13.07.13.07.13.08.12.09,1,2.63-.12-.08a.57.57,0,0,0-.13-.08l-.13-.08-.13-.07" style="fill:#351e00"/><path d="M120.48,273.21l-1-2.63.13.1.13.1.12.11.12.12,1,2.63-.11-.11a.69.69,0,0,0-.13-.11l-.12-.11-.14-.1" style="fill:#371f00"/><path d="M121,273.64,120,271l.15.16.14.18.13.18.11.19,1,2.64-.12-.19a2.14,2.14,0,0,0-.13-.19l-.14-.17a1.14,1.14,0,0,0-.15-.17" style="fill:#392000"/><path d="M121.52,274.36l-1-2.64a1675281718725.06,1675281718725.06,0,0,0,.14.26l.06.14a.78.78,0,0,1,0,.14l1,2.64a1.21,1.21,0,0,0,0-.14l-.06-.14a1675281718735.51,1675281718735.51,0,0,0-.14-.26" style="fill:#3b2100"/></g></g></g><polygon points="65.58 285.59 64.88 282.89 113.25 279.81 114.18 282.48 65.58 285.59" style="fill:#341d00"/><polygon points="57.8 286.95 57.14 284.25 57.15 274.5 57.81 277.15 57.8 286.95" style="fill:#2e1a00"/><g style="isolation:isolate"><g style="clip-path:url(#e)"><g style="isolation:isolate"><path d="M57.81,277.16l-.66-2.66a3.56,3.56,0,0,1,.31-1.45,3.93,3.93,0,0,1,.83-1.19A4.11,4.11,0,0,1,61,270.73h.53l.68,2.64h-.54a4.26,4.26,0,0,0-1.52.32,4.32,4.32,0,0,0-1.24.82,3.93,3.93,0,0,0-.83,1.19,3.57,3.57,0,0,0-.31,1.46" style="fill:#301b00"/><path d="M62.25,273.4l-.68-2.64.19,0,.18,0,.17,0,.18.05.68,2.64-.18-.05-.18,0-.18,0-.18,0" style="fill:#321c00"/><path d="M63,273.55l-.68-2.64.14,0,.15.05.14.06.14.07.68,2.64-.14-.06-.14-.06-.14-.06-.15-.05" style="fill:#341d00"/><path d="M63.54,273.78l-.68-2.64.14.07.13.08.13.08.12.08.69,2.65-.13-.09-.13-.08-.13-.08-.14-.07" style="fill:#351e00"/><path d="M64.07,274.1l-.69-2.65.13.1.13.11a.69.69,0,0,1,.13.11l.11.11.69,2.65-.12-.12-.12-.11-.13-.1-.13-.1" style="fill:#371f00"/><path d="M64.57,274.53l-.69-2.65.16.17c0,.05.09.11.14.17l.13.18.12.2.69,2.65-.12-.2-.13-.18-.15-.17a1.22,1.22,0,0,0-.15-.17" style="fill:#392000"/><path d="M65.12,275.25l-.69-2.65a1.28,1.28,0,0,1,.11.2l.1.22a6.16,6.16,0,0,1,.15.46l.69,2.65a1.55,1.55,0,0,0-.07-.23,2.09,2.09,0,0,0-.08-.23,2,2,0,0,0-.1-.21,1,1,0,0,0-.11-.21" style="fill:#3b2100"/></g></g></g><polygon points="8.94 282.9 8.52 280.21 57.14 284.25 57.8 286.95 8.94 282.9" style="fill:#361f00"/><polygon points="1.4 326.01 1.02 323.13 0.7 275.38 1.08 278.05 1.4 326.01" style="fill:#2e1a00"/><g style="isolation:isolate"><g style="clip-path:url(#f)"><g style="isolation:isolate"><path d="M1.08,278.05.7,275.38a3.55,3.55,0,0,1,.3-1.45,3.73,3.73,0,0,1,.82-1.19,4.06,4.06,0,0,1,1.24-.82,4.15,4.15,0,0,1,1.51-.31H5l.13,0,.41,2.65H5a4.06,4.06,0,0,0-1.53.32,4.12,4.12,0,0,0-1.24.82,3.85,3.85,0,0,0-.83,1.2,3.72,3.72,0,0,0-.3,1.45" style="fill:#301b00"/><path d="M5.52,274.29l-.41-2.65.19,0,.18,0,.18.05.17.05.41,2.65-.18-.05-.18,0-.18,0-.18,0" style="fill:#321c00"/><path d="M6.24,274.44l-.41-2.65.15,0,.15.05.14.06.14.07.41,2.65-.14-.06-.14-.07-.15-.05-.15-.05" style="fill:#341d00"/><path d="M6.82,274.67,6.41,272l.14.07.13.07.13.08.13.09L7.35,275l-.13-.09a.57.57,0,0,0-.13-.08L7,274.74l-.14-.07" style="fill:#351e00"/><path d="M7.35,275l-.41-2.66.13.1.13.1a.69.69,0,0,0,.13.11l.11.12.42,2.66-.12-.12-.12-.11-.13-.1-.14-.1" style="fill:#371f00"/><path d="M7.86,275.42l-.42-2.66a1.29,1.29,0,0,1,.16.17,1.15,1.15,0,0,1,.14.17l.14.18.12.2.42,2.66-.13-.2-.13-.18c-.05-.06-.09-.12-.14-.17l-.16-.17" style="fill:#392000"/><path d="M8.42,276.14,8,273.48l.15.29c0,.1.09.2.13.3s.07.22.1.32,0,.22.07.33l.42,2.67c0-.11,0-.22-.07-.33a3,3,0,0,0-.1-.32,2.88,2.88,0,0,0-.13-.31l-.15-.29" style="fill:#3b2100"/></g></g></g><path d="M230.12,270.74a3.87,3.87,0,0,1,1.49.27,3.68,3.68,0,0,1,1.2.77,3.73,3.73,0,0,1,.79,1.16,3.57,3.57,0,0,1,.26,1.43l-1.27,47.47L225,322l.31-12.14L177.36,313l-.18,9.88-7.66.13.18-10.26-48.1-.59-.12,11.72-7.7.14.14-14.68-48.41.84,0,14.71-7.73.14,0-13.93L9.13,317.51l0,8.36L1.4,326l-.32-48a3.72,3.72,0,0,1,.3-1.45,3.85,3.85,0,0,1,.83-1.2,4.12,4.12,0,0,1,1.24-.82,4.09,4.09,0,0,1,3.05-.05,3.94,3.94,0,0,1,1.25.78,3.63,3.63,0,0,1,.85,1.17,3.53,3.53,0,0,1,.31,1.45l0,5L57.8,287v-9.79a3.57,3.57,0,0,1,.31-1.46,3.93,3.93,0,0,1,.83-1.19,4.32,4.32,0,0,1,1.24-.82,4.06,4.06,0,0,1,3-.05,3.84,3.84,0,0,1,1.23.78,3.57,3.57,0,0,1,.83,1.17A3.48,3.48,0,0,1,65.6,277l0,8.56,48.6-3.11.06-6.22a3.48,3.48,0,0,1,.31-1.44,3.91,3.91,0,0,1,.85-1.2,3.86,3.86,0,0,1,1.24-.81,4,4,0,0,1,1.51-.32,3.92,3.92,0,0,1,1.5.27,3.84,3.84,0,0,1,1.23.78,3.62,3.62,0,0,1,.81,1.16,3.31,3.31,0,0,1,.29,1.44l-.1,9.55,48.23,4,.25-14.32a3.58,3.58,0,0,1,.33-1.45,4,4,0,0,1,.84-1.19,4.09,4.09,0,0,1,1.24-.81,4,4,0,0,1,1.51-.31,3.83,3.83,0,0,1,1.49.26,3.65,3.65,0,0,1,1.21.78,3.47,3.47,0,0,1,.81,1.16,3.57,3.57,0,0,1,.27,1.43l-.15,8.51L226,280.67l.15-6.18a3.94,3.94,0,0,1,.34-1.44,4,4,0,0,1,2.09-2A4,4,0,0,1,230.12,270.74ZM57.77,303.64v-9.25l-48.8-4,.11,19.73,48.68-6.46m167.71-1.13.37-14.48-48.08,3.1-.27,14.5,48-3.12m-55.65,2.89.15-8.3-48.18-4-.12,11.68,48.15.62M114,302l.12-12.07L65.56,293l0,9.78L114,302" style="fill:#4f2d00"/></g><g style="isolation:isolate"><polygon points="470.43 321.97 468.99 319.14 469.3 307.05 470.74 309.83 470.43 321.97" style="fill:#2e1a00"/><polygon points="414.97 322.97 413.79 320.13 413.97 309.91 415.15 312.71 414.97 322.97" style="fill:#2e1a00"/><polygon points="422.94 305.63 421.73 302.87 469.48 299.77 470.93 302.51 422.94 305.63" style="fill:#351e00"/><polygon points="470.93 302.51 469.48 299.77 469.85 285.35 471.3 288.03 470.93 302.51" style="fill:#2e1a00"/><polygon points="415.28 305.4 414.1 302.63 414.24 294.36 415.42 297.1 415.28 305.4" style="fill:#2e1a00"/><polygon points="471.48 280.67 470.03 278.02 470.19 271.87 471.64 274.49 471.48 280.67" style="fill:#2e1a00"/><g style="isolation:isolate"><g style="clip-path:url(#g)"><g style="isolation:isolate"><path d="M475.57,270.74l-1.47-2.61h.53l1.47,2.61h-.53" style="fill:#301b00"/><path d="M476.1,270.77l-1.47-2.61.18,0,.17,0,.18,0,.17.05,1.47,2.61-.17-.05-.17,0-.18,0-.18,0" style="fill:#321c00"/><path d="M476.8,270.92l-1.47-2.61.14.05.14.05.14.06.14.07,1.48,2.61-.14-.07-.14-.06-.14,0-.15-.05" style="fill:#341d00"/><path d="M477.37,271.15l-1.48-2.61.13.07.13.07.12.08.12.09,1.48,2.61-.12-.09-.12-.08-.13-.07-.13-.07" style="fill:#351e00"/><path d="M477.87,271.46l-1.48-2.61.13.1.12.1.12.11.11.12,1.49,2.61-.12-.12-.11-.11-.13-.1-.13-.1" style="fill:#371f00"/><path d="M478.36,271.89l-1.49-2.61.14.15.13.17a1,1,0,0,1,.12.17,1.74,1.74,0,0,1,.11.18l1.49,2.61-.11-.18-.12-.17c0-.06-.09-.11-.13-.16l-.14-.16" style="fill:#392000"/></g></g></g><g style="isolation:isolate"><g style="clip-path:url(#h)"><g style="isolation:isolate"><path d="M471.64,274.49l-1.45-2.62a3.54,3.54,0,0,1,.34-1.44,3.91,3.91,0,0,1,.84-1.18,4.26,4.26,0,0,1,1.24-.8,3.9,3.9,0,0,1,1.49-.32l1.47,2.61a4,4,0,0,0-1.5.32,4,4,0,0,0-2.09,2,3.58,3.58,0,0,0-.34,1.44" style="fill:#301b00"/></g></g></g><polygon points="359.23 323.98 358.31 321.12 358.45 306.51 359.37 309.3 359.23 323.98" style="fill:#2e1a00"/><polygon points="367.13 304.77 366.17 302 414.1 302.63 415.28 305.4 367.13 304.77" style="fill:#361e00"/><polygon points="423.35 283.76 422.13 281.09 470.03 278.02 471.48 280.67 423.35 283.76" style="fill:#341d00"/><polygon points="415.55 289.7 414.37 287 414.62 272.74 415.81 275.38 415.55 289.7" style="fill:#2e1a00"/><g style="isolation:isolate"><g style="clip-path:url(#i)"><g style="isolation:isolate"><path d="M415.81,275.38l-1.19-2.64a3.69,3.69,0,0,1,.32-1.44,3.78,3.78,0,0,1,.85-1.18,3.93,3.93,0,0,1,1.23-.81,3.76,3.76,0,0,1,1.5-.31h.53l1.21,2.62h-.53a4,4,0,0,0-1.51.31,4.09,4.09,0,0,0-1.24.81,4.18,4.18,0,0,0-.85,1.19,3.57,3.57,0,0,0-.32,1.45" style="fill:#301b00"/><path d="M420.26,271.64,419.05,269l.18,0,.18,0,.17,0,.17.05,1.22,2.62-.18-.05-.17,0-.18,0-.18,0" style="fill:#321c00"/><path d="M421,271.79l-1.22-2.62.15.05.14.06.14.06.14.06,1.21,2.62-.13-.06-.14-.06-.15-.06-.14,0" style="fill:#341d00"/><path d="M421.53,272l-1.21-2.62.13.07.13.08.12.08a.57.57,0,0,1,.13.08l1.22,2.62-.13-.08-.12-.08-.13-.08-.14-.07" style="fill:#351e00"/><path d="M422.05,272.33l-1.22-2.62.13.1.12.11.12.1.12.12,1.22,2.62-.12-.11-.12-.11-.12-.11-.13-.1" style="fill:#371f00"/><path d="M422.54,272.76l-1.22-2.62.14.16.14.18.13.18a1.18,1.18,0,0,1,.11.19l1.23,2.63-.12-.19a1.27,1.27,0,0,0-.13-.19l-.13-.17-.15-.17" style="fill:#392000"/><path d="M423.07,273.48l-1.23-2.63,0,.06,0,.06,0,0,0,.06,1.23,2.63,0-.06,0-.06,0-.06,0,0" style="fill:#3b2100"/></g></g></g><polygon points="303.19 324.99 302.54 322.12 302.56 308.25 303.21 311.06 303.19 324.99" style="fill:#2e1a00"/><polygon points="359.44 301.95 358.52 299.19 358.63 287.17 359.56 289.88 359.44 301.95" style="fill:#2e1a00"/><polygon points="367.33 285.69 366.37 283 414.37 287 415.55 289.7 367.33 285.69" style="fill:#361f00"/><polygon points="310.98 302.78 310.29 300.01 358.52 299.19 359.44 301.95 310.98 302.78" style="fill:#351e00"/><polygon points="359.63 282.48 358.7 279.81 358.76 273.62 359.68 276.26 359.63 282.48" style="fill:#2e1a00"/><polygon points="303.22 303.64 302.57 300.86 302.58 291.66 303.23 294.39 303.22 303.64" style="fill:#2e1a00"/><polygon points="254.54 310.1 254.12 307.29 302.57 300.86 303.22 303.64 254.54 310.1" style="fill:#331d00"/><g style="isolation:isolate"><g style="clip-path:url(#j)"><g style="isolation:isolate"><path d="M359.68,276.26l-.92-2.64a3.68,3.68,0,0,1,1.16-2.63,4.06,4.06,0,0,1,2.73-1.13h.54l.94,2.63h-.53a4.11,4.11,0,0,0-2.76,1.13,3.88,3.88,0,0,0-.84,1.2,3.65,3.65,0,0,0-.32,1.44" style="fill:#301b00"/><path d="M364.13,272.52l-.94-2.63.18,0,.18,0,.17,0,.17.05.95,2.63-.17-.05-.18,0-.18,0-.18,0" style="fill:#321c00"/><path d="M364.84,272.67l-.95-2.63.15,0,.15.05.14.06.13.07,1,2.63-.14-.06-.14-.07-.15,0-.15-.05" style="fill:#341d00"/><path d="M365.42,272.9l-1-2.63.14.07.13.07a.57.57,0,0,0,.13.08l.12.09.95,2.63-.12-.08-.13-.08-.13-.08-.13-.07" style="fill:#351e00"/><path d="M365.93,273.21l-.95-2.63.13.1.13.1.12.11.12.12.95,2.63-.12-.11a.63.63,0,0,0-.12-.11l-.12-.11-.14-.1" style="fill:#371f00"/><path d="M366.43,273.64l-.95-2.63.15.16.14.18.12.18.12.19,1,2.64-.12-.19a2.14,2.14,0,0,0-.13-.19l-.14-.17-.15-.17" style="fill:#392000"/><path d="M367,274.36l-1-2.64a.83.83,0,0,1,.07.13l.07.13.06.14.05.14,1,2.64s0-.09-.05-.14l-.06-.14-.07-.13-.07-.13" style="fill:#3b2100"/></g></g></g><polygon points="311.02 285.59 310.33 282.89 358.7 279.81 359.63 282.48 311.02 285.59" style="fill:#341d00"/><polygon points="303.24 286.95 302.59 284.25 302.6 274.5 303.26 277.15 303.24 286.95" style="fill:#2e1a00"/><g style="isolation:isolate"><g style="clip-path:url(#k)"><g style="isolation:isolate"><path d="M303.26,277.16l-.66-2.66a3.56,3.56,0,0,1,.31-1.45,3.93,3.93,0,0,1,.83-1.19,3.86,3.86,0,0,1,1.24-.81,4,4,0,0,1,1.51-.32H307l.68,2.64h-.54a4.26,4.26,0,0,0-1.52.32,4.32,4.32,0,0,0-1.24.82,3.76,3.76,0,0,0-.83,1.19,3.57,3.57,0,0,0-.31,1.46" style="fill:#301b00"/><path d="M307.7,273.4l-.68-2.64.18,0,.18,0,.18,0,.17.05.68,2.64-.17-.05-.18,0-.18,0-.18,0" style="fill:#321c00"/><path d="M308.41,273.55l-.68-2.64.15,0,.15.05.14.06.14.07.68,2.64-.14-.06-.14-.06-.15-.06-.15-.05" style="fill:#341d00"/><path d="M309,273.78l-.68-2.64.14.07.13.08.13.08.12.08.68,2.65-.12-.09-.13-.08-.13-.08-.14-.07" style="fill:#351e00"/><path d="M309.51,274.1l-.68-2.65.13.1.13.11.12.11.12.11.69,2.65-.12-.12-.12-.11-.13-.1-.14-.1" style="fill:#371f00"/><path d="M310,274.53l-.69-2.65c.05.06.11.11.15.17l.15.17.13.18.12.2.69,2.65-.12-.2-.13-.18-.15-.17-.15-.17" style="fill:#392000"/><path d="M310.57,275.25l-.69-2.65c0,.06.07.13.11.2s.07.15.1.22a6.16,6.16,0,0,1,.15.46l.69,2.65a1.55,1.55,0,0,0-.07-.23,2.09,2.09,0,0,0-.08-.23l-.1-.21a2,2,0,0,0-.11-.21" style="fill:#3b2100"/></g></g></g><polygon points="254.39 282.9 253.97 280.21 302.59 284.25 303.24 286.95 254.39 282.9" style="fill:#361f00"/><polygon points="246.85 326.01 246.47 323.13 246.15 275.38 246.53 278.05 246.85 326.01" style="fill:#2e1a00"/><g style="isolation:isolate"><g style="clip-path:url(#l)"><g style="isolation:isolate"><path d="M246.53,278.05l-.38-2.67a3.54,3.54,0,0,1,.29-1.45,3.93,3.93,0,0,1,.83-1.19,4.06,4.06,0,0,1,1.24-.82,4.15,4.15,0,0,1,1.51-.31h.41l.13,0,.41,2.65h-.55a4.05,4.05,0,0,0-1.52.32,3.89,3.89,0,0,0-1.24.82,3.69,3.69,0,0,0-.83,1.2,3.55,3.55,0,0,0-.3,1.45" style="fill:#301b00"/><path d="M251,274.29l-.41-2.65.18,0,.19,0,.17.05.18.05.41,2.65-.18-.05-.18,0-.18,0-.18,0" style="fill:#321c00"/><path d="M251.69,274.44l-.41-2.65.15,0,.14.05.15.06.14.07.41,2.65-.14-.06-.15-.07-.14-.05-.15-.05" style="fill:#341d00"/><path d="M252.27,274.67l-.41-2.65.14.07.13.07.13.08.12.09.42,2.66-.13-.09-.13-.08-.13-.08-.14-.07" style="fill:#351e00"/><path d="M252.8,275l-.42-2.66.14.1.13.1.12.11.12.12.42,2.66-.12-.12-.13-.11-.13-.1-.13-.1" style="fill:#371f00"/><path d="M253.31,275.42l-.42-2.66a1.29,1.29,0,0,1,.16.17,1.15,1.15,0,0,1,.14.17l.13.18a1.06,1.06,0,0,1,.12.2l.42,2.66a2.12,2.12,0,0,0-.12-.2l-.13-.18-.15-.17-.15-.17" style="fill:#392000"/><path d="M253.86,276.14l-.42-2.66a2.69,2.69,0,0,1,.16.29c.05.1.09.2.13.3s.07.22.1.32,0,.22.07.33l.42,2.67c0-.11,0-.22-.07-.33a3,3,0,0,0-.1-.32,2.88,2.88,0,0,0-.13-.31,2.69,2.69,0,0,0-.16-.29" style="fill:#3b2100"/></g></g></g><path d="M475.57,270.74a3.87,3.87,0,0,1,1.49.27,3.54,3.54,0,0,1,1.19.77,3.5,3.5,0,0,1,1.06,2.59L478,321.84l-7.61.13.31-12.14L422.81,313l-.19,9.88L415,323l.18-10.26-48.1-.59-.13,11.72-7.69.14.14-14.68-48.41.84,0,14.71-7.73.14,0-13.93-48.63,6.45,0,8.36-7.78.14-.32-48a3.55,3.55,0,0,1,.3-1.45,3.69,3.69,0,0,1,.83-1.2,3.89,3.89,0,0,1,1.24-.82,4.09,4.09,0,0,1,3-.05,3.94,3.94,0,0,1,1.25.78,3.75,3.75,0,0,1,.84,1.17,3.53,3.53,0,0,1,.32,1.45l0,5L303.24,287l0-9.79a3.57,3.57,0,0,1,.31-1.46,3.76,3.76,0,0,1,.83-1.19,4.32,4.32,0,0,1,1.24-.82,4.26,4.26,0,0,1,1.52-.32,4.13,4.13,0,0,1,1.51.27,3.78,3.78,0,0,1,1.24.78,3.57,3.57,0,0,1,.83,1.17A3.32,3.32,0,0,1,311,277l0,8.56,48.61-3.11.05-6.22a3.65,3.65,0,0,1,.32-1.44,3.88,3.88,0,0,1,.84-1.2,4.11,4.11,0,0,1,2.76-1.13,3.92,3.92,0,0,1,1.5.27,3.69,3.69,0,0,1,1.22.78,3.5,3.5,0,0,1,.82,1.16,3.47,3.47,0,0,1,.29,1.44l-.1,9.55,48.22,4,.26-14.32a3.57,3.57,0,0,1,.32-1.45,4.18,4.18,0,0,1,.85-1.19,4.09,4.09,0,0,1,1.24-.81,4,4,0,0,1,1.51-.31,3.86,3.86,0,0,1,1.49.26,3.7,3.7,0,0,1,2,1.94,3.57,3.57,0,0,1,.27,1.43l-.16,8.51,48.13-3.09.16-6.18a3.58,3.58,0,0,1,.34-1.44,4,4,0,0,1,2.09-2A4,4,0,0,1,475.57,270.74Zm-172.35,32.9v-9.25l-48.8-4,.11,19.73,48.68-6.46m167.71-1.13L471.3,288l-48.08,3.1-.28,14.5,48-3.12m-55.65,2.89.14-8.3-48.17-4-.12,11.68,48.15.62M359.44,302l.11-12.07L311,293l0,9.78,48.46-.83" style="fill:#4f2d00"/></g><g style="isolation:isolate"><polygon points="713.88 321.97 712.44 319.14 712.75 307.05 714.19 309.83 713.88 321.97" style="fill:#2e1a00"/><polygon points="658.42 322.97 657.24 320.13 657.42 309.91 658.6 312.71 658.42 322.97" style="fill:#2e1a00"/><polygon points="666.39 305.63 665.17 302.87 712.93 299.77 714.37 302.51 666.39 305.63" style="fill:#351e00"/><polygon points="714.37 302.51 712.93 299.77 713.3 285.35 714.74 288.03 714.37 302.51" style="fill:#2e1a00"/><polygon points="658.73 305.4 657.54 302.63 657.69 294.36 658.87 297.1 658.73 305.4" style="fill:#2e1a00"/><polygon points="714.93 280.67 713.48 278.02 713.64 271.87 715.09 274.49 714.93 280.67" style="fill:#2e1a00"/><g style="isolation:isolate"><g style="clip-path:url(#m)"><g style="isolation:isolate"><path d="M719,270.74l-1.47-2.61h.53l1.47,2.61H719" style="fill:#301b00"/><path d="M719.55,270.77l-1.47-2.61.17,0,.18,0,.17,0,.17.05,1.48,2.61-.17-.05-.17,0-.18,0-.18,0" style="fill:#321c00"/><path d="M720.25,270.92l-1.48-2.61.15.05.14.05.14.06.13.07,1.48,2.61-.13-.07-.14-.06-.14,0-.15-.05" style="fill:#341d00"/><path d="M720.81,271.15l-1.48-2.61.14.07.12.07.13.08.12.09,1.48,2.61-.12-.09-.13-.08-.12-.07-.14-.07" style="fill:#351e00"/><path d="M721.32,271.46l-1.48-2.61.13.1.12.1.12.11.11.12,1.49,2.61-.12-.12-.12-.11-.12-.1-.13-.1" style="fill:#371f00"/><path d="M721.81,271.89l-1.49-2.61.14.15.13.17.12.17a1.74,1.74,0,0,1,.11.18l1.49,2.61-.11-.18-.12-.17c0-.06-.09-.11-.13-.16l-.14-.16" style="fill:#392000"/></g></g></g><g style="isolation:isolate"><g style="clip-path:url(#n)"><g style="isolation:isolate"><path d="M715.09,274.49l-1.45-2.62a3.7,3.7,0,0,1,.33-1.44,4.13,4.13,0,0,1,.85-1.18,4.21,4.21,0,0,1,1.23-.8,4,4,0,0,1,1.5-.32l1.47,2.61a4,4,0,0,0-1.5.32,4.09,4.09,0,0,0-1.24.81,3.78,3.78,0,0,0-.85,1.18,3.58,3.58,0,0,0-.34,1.44" style="fill:#301b00"/></g></g></g><polygon points="602.68 323.98 601.76 321.12 601.9 306.51 602.82 309.3 602.68 323.98" style="fill:#2e1a00"/><polygon points="610.57 304.77 609.62 302 657.54 302.63 658.73 305.4 610.57 304.77" style="fill:#361e00"/><polygon points="666.8 283.76 665.58 281.09 713.48 278.02 714.93 280.67 666.8 283.76" style="fill:#341d00"/><polygon points="659 289.7 657.82 287 658.06 272.74 659.25 275.38 659 289.7" style="fill:#2e1a00"/><g style="isolation:isolate"><g style="clip-path:url(#o)"><g style="isolation:isolate"><path d="M659.25,275.38l-1.19-2.64a3.7,3.7,0,0,1,.33-1.44,3.91,3.91,0,0,1,.84-1.18,4,4,0,0,1,1.24-.81A3.76,3.76,0,0,1,662,269h.53l1.21,2.62h-.54a3.94,3.94,0,0,0-1.5.31,3.86,3.86,0,0,0-1.24.81,3.82,3.82,0,0,0-.85,1.19,3.75,3.75,0,0,0-.33,1.45" style="fill:#301b00"/><path d="M663.71,271.64,662.5,269l.18,0,.17,0,.18,0,.17.05,1.21,2.62-.17-.05-.17,0-.18,0-.18,0" style="fill:#321c00"/><path d="M664.41,271.79l-1.21-2.62.14.05.15.06.14.06.13.06L665,272l-.14-.06-.14-.06-.14-.06-.15,0" style="fill:#341d00"/><path d="M665,272l-1.22-2.62.14.07.13.08.12.08.12.08,1.22,2.62-.12-.08a.57.57,0,0,0-.13-.08l-.13-.08L665,272" style="fill:#351e00"/><path d="M665.49,272.33l-1.22-2.62.13.1a.69.69,0,0,1,.13.11l.12.1.11.12,1.23,2.62-.12-.11-.12-.11-.13-.11-.13-.1" style="fill:#371f00"/><path d="M666,272.76l-1.23-2.62c.06.05.1.11.15.16l.14.18.13.18.11.19,1.22,2.63a1.18,1.18,0,0,0-.11-.19,1.27,1.27,0,0,0-.13-.19,2.09,2.09,0,0,0-.14-.17,2.09,2.09,0,0,0-.14-.17" style="fill:#392000"/><path d="M666.51,273.48l-1.22-2.63,0,.06,0,.06,0,0,0,.06,1.23,2.63,0-.06,0-.06,0-.06,0,0" style="fill:#3b2100"/></g></g></g><polygon points="546.64 324.99 545.99 322.12 546 308.25 546.66 311.06 546.64 324.99" style="fill:#2e1a00"/><polygon points="602.89 301.95 601.97 299.19 602.08 287.17 603 289.88 602.89 301.95" style="fill:#2e1a00"/><polygon points="610.78 285.69 609.82 283 657.82 287 659 289.7 610.78 285.69" style="fill:#361f00"/><polygon points="554.43 302.78 553.74 300.01 601.97 299.19 602.89 301.95 554.43 302.78" style="fill:#351e00"/><polygon points="603.07 282.48 602.15 279.81 602.21 273.62 603.13 276.26 603.07 282.48" style="fill:#2e1a00"/><polygon points="546.67 303.64 546.01 300.86 546.03 291.66 546.68 294.39 546.67 303.64" style="fill:#2e1a00"/><polygon points="497.99 310.1 497.57 307.29 546.01 300.86 546.67 303.64 497.99 310.1" style="fill:#331d00"/><g style="isolation:isolate"><g style="clip-path:url(#p)"><g style="isolation:isolate"><path d="M603.13,276.26l-.92-2.64a3.57,3.57,0,0,1,.32-1.45,3.72,3.72,0,0,1,.83-1.18,4.11,4.11,0,0,1,2.74-1.13h.53l1,2.63H607a4,4,0,0,0-1.51.32,4.09,4.09,0,0,0-1.24.81,3.88,3.88,0,0,0-.84,1.2,3.65,3.65,0,0,0-.32,1.44" style="fill:#301b00"/><path d="M607.58,272.52l-1-2.63.19,0,.17,0,.18,0,.17.05.95,2.63-.17-.05-.18,0-.18,0-.18,0" style="fill:#321c00"/><path d="M608.29,272.67l-.95-2.63.15,0,.14.05.14.06.14.07,1,2.63-.13-.06-.15-.07-.14,0-.15-.05" style="fill:#341d00"/><path d="M608.86,272.9l-1-2.63.14.07.13.07.12.08.13.09,1,2.63-.12-.08-.13-.08L609,273l-.14-.07" style="fill:#351e00"/><path d="M609.38,273.21l-1-2.63.13.1.13.1.12.11.11.12,1,2.63-.12-.11-.12-.11-.13-.11-.13-.1" style="fill:#371f00"/><path d="M609.88,273.64l-1-2.63a1.1,1.1,0,0,1,.15.16l.14.18.13.18.12.19,1,2.64-.12-.19a2.14,2.14,0,0,0-.13-.19l-.14-.17-.15-.17" style="fill:#392000"/><path d="M610.42,274.36l-1-2.64.07.13a.83.83,0,0,0,.07.13l.06.14a.78.78,0,0,0,.05.14l1,2.64-.06-.14a.53.53,0,0,0-.06-.14l-.06-.13-.07-.13" style="fill:#3b2100"/></g></g></g><polygon points="554.47 285.59 553.78 282.89 602.15 279.81 603.07 282.48 554.47 285.59" style="fill:#341d00"/><polygon points="546.69 286.95 546.04 284.25 546.05 274.5 546.71 277.15 546.69 286.95" style="fill:#2e1a00"/><g style="isolation:isolate"><g style="clip-path:url(#q)"><g style="isolation:isolate"><path d="M546.71,277.16l-.66-2.66a3.56,3.56,0,0,1,.31-1.45,3.76,3.76,0,0,1,.83-1.19,3.93,3.93,0,0,1,1.23-.81,4,4,0,0,1,1.51-.32h.54l.68,2.64h-.54a4.26,4.26,0,0,0-1.52.32,4.06,4.06,0,0,0-1.24.82,4,4,0,0,0-.84,1.19,3.74,3.74,0,0,0-.3,1.46" style="fill:#301b00"/><path d="M551.15,273.4l-.68-2.64.18,0,.18,0,.18,0,.17.05.68,2.64-.17-.05-.18,0-.18,0-.18,0" style="fill:#321c00"/><path d="M551.86,273.55l-.68-2.64.15,0,.15.05.14.06.14.07.68,2.64-.14-.06-.14-.06-.15-.06-.15-.05" style="fill:#341d00"/><path d="M552.44,273.78l-.68-2.64.13.07.13.08a.57.57,0,0,1,.13.08.57.57,0,0,1,.13.08l.68,2.65-.12-.09-.13-.08-.13-.08-.14-.07" style="fill:#351e00"/><path d="M553,274.1l-.68-2.65.13.1.13.11.12.11.12.11.69,2.65-.12-.12-.12-.11-.13-.1-.14-.1" style="fill:#371f00"/><path d="M553.47,274.53l-.69-2.65.15.17a1.15,1.15,0,0,1,.14.17l.13.18a1.06,1.06,0,0,1,.12.2l.69,2.65a1.06,1.06,0,0,0-.12-.2l-.13-.18a1.15,1.15,0,0,0-.14-.17l-.15-.17" style="fill:#392000"/><path d="M554,275.25l-.69-2.65.12.2.09.22a1.57,1.57,0,0,1,.09.23c0,.07,0,.15.07.23l.69,2.65a1.55,1.55,0,0,0-.07-.23l-.08-.23-.1-.21a2,2,0,0,0-.12-.21" style="fill:#3b2100"/></g></g></g><polygon points="497.84 282.9 497.42 280.21 546.04 284.25 546.69 286.95 497.84 282.9" style="fill:#361f00"/><polygon points="490.3 326.01 489.92 323.13 489.6 275.38 489.98 278.05 490.3 326.01" style="fill:#2e1a00"/><g style="isolation:isolate"><g style="clip-path:url(#r)"><g style="isolation:isolate"><path d="M490,278.05l-.38-2.67a3.54,3.54,0,0,1,.29-1.45,3.93,3.93,0,0,1,.83-1.19,4.14,4.14,0,0,1,1.23-.82,4.25,4.25,0,0,1,1.52-.31h.41l.13,0,.4,2.65h-.54a4.05,4.05,0,0,0-1.52.32,3.89,3.89,0,0,0-1.24.82,3.69,3.69,0,0,0-.83,1.2,3.55,3.55,0,0,0-.3,1.45" style="fill:#301b00"/><path d="M494.41,274.29l-.4-2.65.18,0,.18,0,.18.05.18.05.4,2.65-.17-.05-.18,0-.18,0-.19,0" style="fill:#321c00"/><path d="M495.13,274.44l-.4-2.65.15,0,.14.05.15.06.14.07.41,2.65-.14-.06-.15-.07-.15-.05-.15-.05" style="fill:#341d00"/><path d="M495.72,274.67l-.41-2.65.13.07.14.07a.57.57,0,0,0,.13.08l.12.09.42,2.66-.13-.09-.13-.08-.14-.08-.13-.07" style="fill:#351e00"/><path d="M496.25,275l-.42-2.66.14.1.13.1.12.11.12.12.42,2.66-.12-.12-.13-.11-.13-.1-.13-.1" style="fill:#371f00"/><path d="M496.76,275.42l-.42-2.66.16.17.14.17.13.18.12.2.42,2.66-.12-.2-.13-.18-.15-.17-.15-.17" style="fill:#392000"/><path d="M497.31,276.14l-.42-2.66a2.69,2.69,0,0,1,.16.29c.05.1.09.2.13.3s.07.22.09.32a1.94,1.94,0,0,1,.07.33l.42,2.67c0-.11,0-.22-.06-.33s-.07-.22-.1-.32-.09-.21-.13-.31a2.69,2.69,0,0,0-.16-.29" style="fill:#3b2100"/></g></g></g><path d="M719,270.74a3.78,3.78,0,0,1,1.48.27,3.58,3.58,0,0,1,1.2.77,3.42,3.42,0,0,1,.79,1.16,3.57,3.57,0,0,1,.27,1.43l-1.27,47.47-7.61.13.31-12.14L666.26,313l-.19,9.88-7.65.13.18-10.26-48.1-.59-.13,11.72-7.69.14.14-14.68-48.41.84,0,14.71-7.73.14,0-13.93L498,317.51l0,8.36-7.77.14-.32-48a3.55,3.55,0,0,1,.3-1.45,3.69,3.69,0,0,1,.83-1.2,3.89,3.89,0,0,1,1.24-.82,4.09,4.09,0,0,1,3-.05,3.94,3.94,0,0,1,1.25.78,3.75,3.75,0,0,1,.84,1.17,3.53,3.53,0,0,1,.32,1.45l0,5L546.69,287l0-9.79a3.74,3.74,0,0,1,.3-1.46,4,4,0,0,1,.84-1.19,4.06,4.06,0,0,1,1.24-.82,4.26,4.26,0,0,1,1.52-.32,4.17,4.17,0,0,1,1.51.27,3.78,3.78,0,0,1,1.24.78,3.72,3.72,0,0,1,.83,1.17,3.47,3.47,0,0,1,.3,1.44l0,8.56,48.6-3.11.06-6.22a3.65,3.65,0,0,1,.32-1.44,3.88,3.88,0,0,1,.84-1.2,4.09,4.09,0,0,1,1.24-.81,4,4,0,0,1,1.51-.32,3.94,3.94,0,0,1,1.51.27,3.69,3.69,0,0,1,1.22.78,3.5,3.5,0,0,1,.82,1.16,3.63,3.63,0,0,1,.29,1.44l-.1,9.55,48.22,4,.25-14.32a3.75,3.75,0,0,1,.33-1.45,3.82,3.82,0,0,1,.85-1.19,3.86,3.86,0,0,1,1.24-.81,3.94,3.94,0,0,1,1.5-.31,3.88,3.88,0,0,1,1.5.26,3.65,3.65,0,0,1,1.21.78,3.52,3.52,0,0,1,1.08,2.59l-.16,8.51,48.13-3.09.16-6.18a3.58,3.58,0,0,1,.34-1.44,3.78,3.78,0,0,1,.85-1.18,4.09,4.09,0,0,1,1.24-.81A4,4,0,0,1,719,270.74Zm-172.35,32.9v-9.25l-48.8-4L498,310.1l48.68-6.46m167.7-1.13.37-14.48-48.08,3.1-.27,14.5,48-3.12m-55.64,2.89.14-8.3-48.17-4-.13,11.68,48.16.62M602.89,302l.11-12.07L554.45,293l0,9.78,48.46-.83" style="fill:#4f2d00"/></g></svg>